<svg width="128" height="128" viewBox="0 0 128 128" fill="none" xmlns="http://www.w3.org/2000/svg">
<g clip-path="url(#clip0_20_33)">
<path d="M96 0H32C14.3269 0 0 14.3269 0 32V96C0 113.673 14.3269 128 32 128H96C113.673 128 128 113.673 128 96V32C128 14.3269 113.673 0 96 0Z" fill="url(#paint0_linear_20_33)"/>
<path d="M104.943 60.39L99.6093 55.0567C99.4856 54.9329 99.3386 54.8346 99.1768 54.7676C99.0151 54.7006 98.8417 54.6661 98.6666 54.6661C98.4915 54.6661 98.3182 54.7006 98.1564 54.7676C97.9947 54.8346 97.8477 54.9329 97.7239 55.0567L92.3906 60.39C92.2667 60.5138 92.1685 60.6608 92.1015 60.8225C92.0345 60.9843 92 61.1576 92 61.3327V74.666C92 74.8412 92.0344 75.0146 92.1014 75.1763C92.1684 75.3381 92.2666 75.4851 92.3904 75.609C92.5142 75.7328 92.6612 75.831 92.823 75.898C92.9848 75.965 93.1582 75.9994 93.3333 75.9994H104C104.175 75.9994 104.349 75.965 104.51 75.898C104.672 75.831 104.819 75.7328 104.943 75.609C105.067 75.4851 105.165 75.3381 105.232 75.1763C105.299 75.0146 105.333 74.8412 105.333 74.666V61.3327C105.333 61.1576 105.299 60.9842 105.232 60.8225C105.165 60.6607 105.067 60.5138 104.943 60.39Z" fill="white"/>
<path d="M81.3333 43.9994H41.3333C41.1582 43.9993 40.9848 44.0338 40.823 44.1008C40.6612 44.1678 40.5142 44.266 40.3904 44.3898C40.2666 44.5136 40.1684 44.6606 40.1014 44.8224C40.0344 44.9842 40 45.1576 40 45.3327V65.3327C39.9999 65.5865 40.0723 65.835 40.2086 66.0491C40.345 66.2631 40.5396 66.4338 40.7695 66.5411L60.7695 75.8744C60.9461 75.9567 61.1385 75.9994 61.3333 75.9994C61.5281 75.9994 61.7206 75.9567 61.8971 75.8744L81.8971 66.5411C82.1271 66.4338 82.3217 66.2631 82.458 66.0491C82.5943 65.835 82.6667 65.5865 82.6667 65.3327V45.3327C82.6667 45.1576 82.6323 44.9842 82.5653 44.8224C82.4983 44.6606 82.4001 44.5136 82.2762 44.3898C82.1524 44.266 82.0054 44.1678 81.8436 44.1008C81.6818 44.0338 81.5084 43.9993 81.3333 43.9994Z" fill="white"/>
<path d="M81.3333 43.9994H41.3333C41.1582 43.9993 40.9848 44.0338 40.823 44.1008C40.6612 44.1678 40.5142 44.266 40.3904 44.3898C40.2666 44.5136 40.1684 44.6606 40.1014 44.8224C40.0344 44.9842 40 45.1576 40 45.3327V58.1824L60.7695 67.8744C60.9461 67.9567 61.1385 67.9994 61.3333 67.9994C61.5281 67.9994 61.7206 67.9567 61.8971 67.8744L82.6667 58.1823V45.3327C82.6667 45.1576 82.6323 44.9842 82.5653 44.8224C82.4983 44.6606 82.4001 44.5136 82.2762 44.3898C82.1524 44.266 82.0054 44.1678 81.8436 44.1008C81.6818 44.0338 81.5084 43.9993 81.3333 43.9994Z" fill="white"/>
<path d="M99.2279 38.7897L61.8946 21.4564C61.7186 21.3754 61.5271 21.3334 61.3334 21.3334C61.1396 21.3334 60.9481 21.3754 60.7722 21.4564L23.4388 38.7897C23.2082 38.8968 23.013 39.0675 22.8762 39.2819C22.7394 39.4962 22.6667 39.7451 22.6667 39.9994C22.6667 40.2536 22.7394 40.5026 22.8762 40.7169C23.013 40.9312 23.2082 41.102 23.4388 41.209L60.7722 58.5424C60.948 58.6238 61.1395 58.6661 61.3334 58.6661C61.5272 58.6661 61.7187 58.6238 61.8946 58.5424L99.2279 41.209C99.4585 41.102 99.6537 40.9312 99.7905 40.7169C99.9273 40.5026 100 40.2536 100 39.9994C100 39.7451 99.9273 39.4962 99.7905 39.2819C99.6537 39.0675 99.4585 38.8968 99.2279 38.7897Z" fill="white"/>
<path d="M98.6667 51.9994C98.4916 51.9995 98.3182 51.965 98.1564 51.898C97.9946 51.831 97.8476 51.7328 97.7238 51.609C97.5999 51.4852 97.5017 51.3382 97.4347 51.1764C97.3677 51.0146 97.3333 50.8412 97.3333 50.6661V41.3327H61.3333C60.9797 41.3327 60.6406 41.1923 60.3905 40.9422C60.1405 40.6922 60 40.353 60 39.9994C60 39.6458 60.1405 39.3066 60.3905 39.0566C60.6406 38.8066 60.9797 38.6661 61.3333 38.6661H98.6667C98.8418 38.666 99.0152 38.7005 99.177 38.7675C99.3388 38.8345 99.4858 38.9327 99.6096 39.0565C99.7334 39.1803 99.8316 39.3273 99.8986 39.4891C99.9656 39.6509 100 39.8243 100 39.9994V50.6661C100 50.8412 99.9656 51.0146 99.8986 51.1764C99.8316 51.3382 99.7334 51.4852 99.6096 51.609C99.4858 51.7328 99.3388 51.831 99.177 51.898C99.0152 51.965 98.8418 51.9995 98.6667 51.9994Z" fill="white"/>
<path d="M98.6666 59.9994C101.612 59.9994 104 57.6116 104 54.666C104 51.7205 101.612 49.3327 98.6666 49.3327C95.7211 49.3327 93.3333 51.7205 93.3333 54.666C93.3333 57.6116 95.7211 59.9994 98.6666 59.9994Z" fill="white"/>
<path d="M87.6973 101.286C85.9115 100.799 84 96.4147 84 90.666C84 84.9173 85.9115 80.5332 87.6973 80.0463C88.0254 79.9567 88.3069 79.7451 88.4842 79.4549C88.6615 79.1646 88.7212 78.8176 88.6511 78.4848C88.581 78.152 88.3864 77.8585 88.1071 77.6645C87.8278 77.4704 87.4849 77.3904 87.1485 77.4408L61.3333 81.3184L35.5098 77.4395L34.8561 77.3457C34.7934 77.3369 34.73 77.3325 34.6667 77.3327C30.8659 77.3327 28 83.0645 28 90.666C28 98.2676 30.8659 103.999 34.6667 103.999C34.73 104 34.7934 103.995 34.8561 103.986L61.3333 100.014L87.1484 103.891C87.4848 103.942 87.8277 103.862 88.107 103.668C88.3863 103.474 88.5809 103.18 88.651 102.847C88.7212 102.515 88.6615 102.168 88.4842 101.877C88.3069 101.587 88.0254 101.375 87.6973 101.286Z" fill="white"/>
<path d="M66.6666 78.6661H56C55.293 78.6669 54.6152 78.9481 54.1153 79.448C53.6153 79.9479 53.3341 80.6257 53.3333 81.3327V105.333C53.3333 105.551 53.3868 105.765 53.4889 105.958C53.5911 106.15 53.7388 106.315 53.9193 106.437C54.0997 106.559 54.3073 106.635 54.524 106.659C54.7407 106.682 54.9597 106.652 55.1621 106.571L61.3333 104.102L67.5045 106.571C67.7069 106.652 67.926 106.682 68.1426 106.659C68.3593 106.635 68.5669 106.559 68.7474 106.437C68.9278 106.315 69.0756 106.15 69.1777 105.958C69.2798 105.765 69.3333 105.551 69.3333 105.333V81.3327C69.3325 80.6257 69.0513 79.9479 68.5514 79.448C68.0514 78.9481 67.3736 78.6669 66.6666 78.6661Z" fill="white"/>
<path d="M88 77.3327C87.9366 77.3325 87.8733 77.3369 87.8105 77.3457L87.1569 77.4395C87.1024 77.4475 87.0485 77.4588 86.9954 77.4733C83.6614 78.3835 81.3333 83.808 81.3333 90.666C81.3333 97.5241 83.6614 102.949 86.9954 103.859C87.0485 103.873 87.1024 103.885 87.1569 103.893L87.8105 103.986C87.8733 103.995 87.9366 104 88 103.999C91.8008 103.999 94.6666 98.2676 94.6666 90.666C94.6666 83.0645 91.8008 77.3327 88 77.3327Z" fill="white"/>
<path d="M85.3333 89.3327H81.3645C81.3447 89.7707 81.3333 90.2148 81.3333 90.666C81.3333 97.5241 83.6614 102.949 86.9954 103.859C87.0485 103.873 87.1024 103.885 87.1569 103.893L87.8105 103.986C87.8733 103.995 87.9366 104 88 103.999C88.4558 103.998 88.9075 103.914 89.3333 103.751V93.3327C89.3322 92.2722 88.9104 91.2554 88.1605 90.5056C87.4106 89.7557 86.3938 89.3339 85.3333 89.3327Z" fill="white"/>
</g>
<defs>
<linearGradient id="paint0_linear_20_33" x1="64" y1="0" x2="64" y2="128" gradientUnits="userSpaceOnUse">
<stop stop-color="#026FDF"/>
<stop offset="1" stop-color="#141316"/>
</linearGradient>
<clipPath id="clip0_20_33">
<rect width="128" height="128" fill="white"/>
</clipPath>
</defs>
</svg>
